<svg xmlns="http://www.w3.org/2000/svg" width="32.432" height="20" viewBox="0 0 32.432 20"><g transform="translate(0 -98.132)"><path d="M384.826,238.088a.475.475,0,0,0,.672.009l1.572-1.531a.475.475,0,0,0,0-.681l-1.572-1.53a.475.475,0,0,0-.663.681l1.223,1.19-1.223,1.19A.475.475,0,0,0,384.826,238.088Z" transform="translate(-360.323 -127.469)" fill="#fff"/><path d="M29.942,108.921V103.6a.475.475,0,1,0-.95,0v5.718l-2.543,1.547a10.387,10.387,0,0,1-8.8.953,1.141,1.141,0,0,1-.772-.935,1.163,1.163,0,0,1,.056-.563h2.305a.475.475,0,1,0,0-.95H17.933l2.271-1.6a1.682,1.682,0,0,0-1.327-3.019l-5.715,1.254V99.546a.465.465,0,0,1,.464-.464h5.217v3.9a.866.866,0,0,0,.865.865h2.738a.866.866,0,0,0,.865-.865v-3.9h5.217a.465.465,0,0,1,.464.464V101.7a.475.475,0,0,0,.95,0V99.546a1.416,1.416,0,0,0-1.414-1.414h-14.9a1.416,1.416,0,0,0-1.414,1.414v6.675l-.67.147a.981.981,0,0,0-.907-.611H8.62v-.73a.475.475,0,0,0-.475-.475H3.731a.475.475,0,0,0,0,.95H7.67v11.679H.95V105.5h.881a.475.475,0,0,0,0-.95H.475a.475.475,0,0,0-.475.475v12.629a.475.475,0,0,0,.475.475h7.67a.475.475,0,0,0,.475-.475v-.73h2.013a.981.981,0,0,0,.948-.736l.256.074a21.928,21.928,0,0,0,3.686.727.475.475,0,0,0,.1-.945,20.973,20.973,0,0,1-3.526-.7l-.487-.141v-7.886l7.467-1.638A.732.732,0,0,1,19.657,107l-2.841,2a2.111,2.111,0,0,0,.528,3.724,11.335,11.335,0,0,0,9.6-1.04l2.732-1.662h0a1.167,1.167,0,0,1,1.808.791.788.788,0,0,1-.291.593,20.945,20.945,0,0,1-13.669,4.764h-.009a.475.475,0,0,0-.008.95c.131,0,.261,0,.391,0a21.887,21.887,0,0,0,13.9-4.984,1.749,1.749,0,0,0,.637-1.3,2.058,2.058,0,0,0-2.489-1.918ZM22.36,99.082v3.812H19.792V99.082Zm-11.7,16.865a.03.03,0,0,1-.03.03H8.62v-9.269h2.013a.03.03,0,0,1,.03.03Z" transform="translate(0)" fill="#fff"/><path d="M74.235,345.887v-.911a.475.475,0,0,0-.95,0v.911a.475.475,0,0,0,.95,0Z" transform="translate(-68.643 -230.763)" fill="#fff"/></g></svg>