<svg xmlns="http://www.w3.org/2000/svg" width="26.751" height="26" viewBox="0 0 26.751 26"><path d="M26.451,14.6a1.123,1.123,0,0,0-.819-.357H23.463v-.212a3.928,3.928,0,1,0-7.856,0v.212H13.438a1.119,1.119,0,0,0-1.116,1.2l.429,6.028H.784V7.713a.584.584,0,0,1,.584-.584h2.26V8.471a.6.6,0,0,0,.6.6h1.1a.6.6,0,0,0,.6-.6V7.129h6.265V8.471a.6.6,0,0,0,.6.6h1.1a.6.6,0,0,0,.6-.6V7.129h2.26a.584.584,0,0,1,.584.584V9.366a.392.392,0,0,0,.784,0V7.713a1.369,1.369,0,0,0-1.367-1.367h-2.26V2.638A2.642,2.642,0,0,0,11.85,0H6.266A2.642,2.642,0,0,0,3.628,2.638v1.9a.392.392,0,0,0,.784,0v-1.9A1.857,1.857,0,0,1,6.266.783H11.85A1.857,1.857,0,0,1,13.7,2.638V8.284h-.73V2.961a1.449,1.449,0,0,0-1.448-1.448H6.59A1.449,1.449,0,0,0,5.142,2.961V8.284h-.73V6.1a.392.392,0,0,0-.784,0v.244H1.367A1.369,1.369,0,0,0,0,7.713V23.219a1.369,1.369,0,0,0,1.367,1.367h11.6l.02.281A1.223,1.223,0,0,0,14.208,26H24.862a1.223,1.223,0,0,0,1.216-1.132l.217-3.051a.392.392,0,0,0-.782-.056L25.3,24.812a.437.437,0,0,1-.434.4H14.208a.436.436,0,0,1-.434-.4l-.045-.637c0-.006,0-.012,0-.018l-.164-2.3c0-.011,0-.023,0-.034l-.458-6.43a.335.335,0,0,1,.335-.359h2.169v.656a1.34,1.34,0,1,0,.784,0V15.03h6.289v.656a1.34,1.34,0,1,0,.784,0V15.03h2.169a.335.335,0,0,1,.335.359L25.624,20.2a.392.392,0,0,0,.782.056l.342-4.812a1.122,1.122,0,0,0-.3-.842ZM6.59,2.3h4.937a.665.665,0,0,1,.664.664V6.345H5.925V2.961A.665.665,0,0,1,6.59,2.3ZM1.367,23.8a.584.584,0,0,1-.584-.584v-.962H12.807l.11,1.546Zm15.187-6.835a.556.556,0,1,1-.9-.437.392.392,0,0,0,.686,0,.555.555,0,0,1,.213.437Zm7.073,0a.556.556,0,1,1-.9-.437.392.392,0,0,0,.686,0,.555.555,0,0,1,.213.437Zm-5.511-2.721V12.832a.392.392,0,1,0-.784,0v1.414h-.942v-.212a3.144,3.144,0,1,1,6.289,0v.212Zm0,0" transform="translate(0 0.001)" fill="#fff"/></svg>