<svg width="132" height="32" viewBox="0 0 132 32" fill="none" xmlns="http://www.w3.org/2000/svg">
<path d="M0 32V11.5676C0 10.1016 0.372073 8.65855 1.09296 7.37581C2.72078 4.48962 6.34849 0 13.1388 0C19.0687 0 22.3941 3.22978 24.115 5.86399C25.3242 7.7194 25.9521 9.87258 25.9986 12.0945C26.0684 16.7445 23.5801 25.4259 11.1389 25.7924C10.6971 25.8153 10.325 25.4488 10.325 25.0136V19.0351C10.325 18.3479 10.7203 17.7294 11.3482 17.4545C11.6738 17.3171 12.0924 17.2255 12.6505 17.2255C12.6505 17.2255 17.5572 17.34 17.5107 13.0107C17.4874 11.1095 16.5107 10.0329 15.5108 9.46027C14.2783 8.70437 12.79 8.58984 11.4878 9.07087C10.1622 9.5519 8.65069 10.7201 8.65069 13.4918C8.65069 18.4395 8.65069 26.0444 8.65069 26.0444C8.65069 26.0444 8.02282 32 0 32Z" fill="white"/>
<rect x="32" width="100" height="24" rx="4" fill="white"/>
<path d="M51.512 8.928L51.112 11.264H54.776L54.408 13.328H50.744L50.296 15.84H54.44L54.056 18H47.176L49.16 6.768H56.04L55.656 8.928H51.512ZM63.1603 12.432L65.8963 18H62.7123L61.0323 14.56L58.4083 18H55.3042L59.9123 12.288L57.2083 6.768H60.3923L62.0563 10.16L64.6323 6.768H67.7363L63.1603 12.432ZM77.1738 10.384C77.0671 11.0347 76.8164 11.632 76.4218 12.176C76.0271 12.7093 75.4884 13.1413 74.8058 13.472C74.1338 13.8027 73.3391 13.968 72.4218 13.968H70.7258L70.0058 18H67.2698L69.2538 6.768H73.6858C74.8591 6.768 75.7444 7.02933 76.3418 7.552C76.9391 8.064 77.2378 8.76267 77.2378 9.648C77.2378 9.91467 77.2164 10.16 77.1738 10.384ZM72.5818 11.824C73.6058 11.824 74.2084 11.344 74.3898 10.384C74.4111 10.2133 74.4218 10.0907 74.4218 10.016C74.4218 9.67467 74.3098 9.41333 74.0858 9.232C73.8724 9.04 73.5418 8.944 73.0938 8.944H71.6058L71.1098 11.824H72.5818ZM83.8301 6.768C84.9928 6.768 85.8781 7.03467 86.4861 7.568C87.0941 8.09067 87.3981 8.77333 87.3981 9.616C87.3981 9.86133 87.3768 10.0907 87.3341 10.304C87.2061 11.0507 86.8808 11.7173 86.3581 12.304C85.8355 12.8907 85.1368 13.3067 84.2621 13.552L86.0701 18H82.9821L81.3981 13.76H80.7421L79.9901 18H77.2541L79.2381 6.768H83.8301ZM84.5341 10.416C84.5555 10.2453 84.5661 10.1333 84.5661 10.08C84.5661 9.73867 84.4541 9.47733 84.2301 9.296C84.0168 9.104 83.6968 9.008 83.2701 9.008H81.5741L81.0781 11.824H82.7741C83.2755 11.824 83.6701 11.7013 83.9581 11.456C84.2568 11.2107 84.4488 10.864 84.5341 10.416ZM92.0276 8.928L91.6276 11.264H95.2916L94.9236 13.328H91.2596L90.8116 15.84H94.9556L94.5716 18H87.6916L89.6756 6.768H96.5556L96.1716 8.928H92.0276ZM100.812 18.112C99.5959 18.112 98.6039 17.8507 97.8359 17.328C97.0785 16.7947 96.6999 16.0427 96.6999 15.072C96.6999 14.976 96.7105 14.832 96.7319 14.64H99.5799C99.5479 15.0453 99.6439 15.3653 99.8679 15.6C100.092 15.8347 100.433 15.952 100.892 15.952C101.308 15.952 101.633 15.8613 101.868 15.68C102.113 15.4987 102.236 15.2427 102.236 14.912C102.236 14.5707 102.081 14.2933 101.772 14.08C101.473 13.8667 101.004 13.6267 100.364 13.36C99.7452 13.104 99.2385 12.864 98.8439 12.64C98.4599 12.4053 98.1239 12.0907 97.8359 11.696C97.5479 11.3013 97.4039 10.8053 97.4039 10.208C97.3932 9.472 97.5745 8.832 97.9479 8.288C98.3212 7.744 98.8385 7.328 99.4999 7.04C100.161 6.752 100.919 6.608 101.772 6.608C102.54 6.608 103.223 6.73067 103.82 6.976C104.417 7.21067 104.881 7.55733 105.212 8.016C105.543 8.464 105.708 8.99733 105.708 9.616C105.708 9.776 105.703 9.89333 105.692 9.968H102.78C102.791 9.92533 102.796 9.86133 102.796 9.776C102.796 9.47733 102.689 9.23733 102.476 9.056C102.273 8.864 101.991 8.768 101.628 8.768C101.244 8.768 100.929 8.864 100.684 9.056C100.449 9.23733 100.332 9.488 100.332 9.808C100.332 10.128 100.481 10.4 100.78 10.624C101.079 10.8373 101.543 11.088 102.172 11.376C102.801 11.664 103.313 11.9307 103.708 12.176C104.113 12.4213 104.46 12.752 104.748 13.168C105.036 13.5733 105.18 14.0747 105.18 14.672C105.18 15.3333 105.004 15.9253 104.652 16.448C104.3 16.9707 103.793 17.3813 103.132 17.68C102.471 17.968 101.697 18.112 100.812 18.112ZM110.765 18.112C109.549 18.112 108.557 17.8507 107.789 17.328C107.032 16.7947 106.653 16.0427 106.653 15.072C106.653 14.976 106.664 14.832 106.685 14.64H109.533C109.501 15.0453 109.597 15.3653 109.821 15.6C110.045 15.8347 110.386 15.952 110.845 15.952C111.261 15.952 111.586 15.8613 111.821 15.68C112.066 15.4987 112.189 15.2427 112.189 14.912C112.189 14.5707 112.034 14.2933 111.725 14.08C111.426 13.8667 110.957 13.6267 110.317 13.36C109.698 13.104 109.192 12.864 108.797 12.64C108.413 12.4053 108.077 12.0907 107.789 11.696C107.501 11.3013 107.357 10.8053 107.357 10.208C107.346 9.472 107.528 8.832 107.901 8.288C108.274 7.744 108.792 7.328 109.453 7.04C110.114 6.752 110.872 6.608 111.725 6.608C112.493 6.608 113.176 6.73067 113.773 6.976C114.37 7.21067 114.834 7.55733 115.165 8.016C115.496 8.464 115.661 8.99733 115.661 9.616C115.661 9.776 115.656 9.89333 115.645 9.968H112.733C112.744 9.92533 112.749 9.86133 112.749 9.776C112.749 9.47733 112.642 9.23733 112.429 9.056C112.226 8.864 111.944 8.768 111.581 8.768C111.197 8.768 110.882 8.864 110.637 9.056C110.402 9.23733 110.285 9.488 110.285 9.808C110.285 10.128 110.434 10.4 110.733 10.624C111.032 10.8373 111.496 11.088 112.125 11.376C112.754 11.664 113.266 11.9307 113.661 12.176C114.066 12.4213 114.413 12.752 114.701 13.168C114.989 13.5733 115.133 14.0747 115.133 14.672C115.133 15.3333 114.957 15.9253 114.605 16.448C114.253 16.9707 113.746 17.3813 113.085 17.68C112.424 17.968 111.65 18.112 110.765 18.112Z" fill="#FF575C"/>
</svg>
