<svg width="200" height="48" viewBox="0 0 200 48" fill="none" xmlns="http://www.w3.org/2000/svg">
<path d="M0 48V17.3515C0 15.1525 0.563747 12.9878 1.65601 11.0637C4.1224 6.73443 9.61893 0 19.9073 0C28.892 0 33.9305 4.84467 36.5378 8.79599C38.37 11.5791 39.3213 14.8089 39.3918 18.1417C39.4975 25.1167 35.7275 38.1389 16.8772 38.6886C16.2077 38.723 15.644 38.1732 15.644 37.5204V28.5526C15.644 27.5218 16.243 26.5941 17.1943 26.1818C17.6876 25.9757 18.3218 25.8382 19.1674 25.8382C19.1674 25.8382 26.6018 26.01 26.5313 19.5161C26.4961 16.6643 25.0163 15.0494 23.5012 14.1904C21.6338 13.0565 19.3788 12.8848 17.4057 13.6063C15.3973 14.3278 13.1071 16.0802 13.1071 20.2377C13.1071 27.6593 13.1071 39.0666 13.1071 39.0666C13.1071 39.0666 12.1558 48 0 48Z" fill="#FF575C"/>
<rect x="48.4849" width="151.515" height="36" rx="4" fill="#FF575C"/>
<path d="M77.9799 12.392L77.3799 15.896H82.8759L82.3239 18.992H76.8279L76.1559 22.76H82.3719L81.7959 26H71.4759L74.4519 9.152H84.7719L84.1959 12.392H77.9799ZM95.4523 17.648L99.5563 26H94.7803L92.2603 20.84L88.3243 26H83.6683L90.5803 17.432L86.5243 9.152H91.3003L93.7963 14.24L97.6603 9.152H102.316L95.4523 17.648ZM116.473 14.576C116.313 15.552 115.937 16.448 115.345 17.264C114.753 18.064 113.945 18.712 112.921 19.208C111.913 19.704 110.721 19.952 109.345 19.952H106.801L105.721 26H101.617L104.593 9.152H111.241C113.001 9.152 114.329 9.544 115.225 10.328C116.121 11.096 116.569 12.144 116.569 13.472C116.569 13.872 116.537 14.24 116.473 14.576ZM109.585 16.736C111.121 16.736 112.025 16.016 112.297 14.576C112.329 14.32 112.345 14.136 112.345 14.024C112.345 13.512 112.177 13.12 111.841 12.848C111.521 12.56 111.025 12.416 110.353 12.416H108.121L107.377 16.736H109.585ZM126.457 9.152C128.201 9.152 129.529 9.552 130.441 10.352C131.353 11.136 131.809 12.16 131.809 13.424C131.809 13.792 131.777 14.136 131.713 14.456C131.521 15.576 131.033 16.576 130.249 17.456C129.465 18.336 128.417 18.96 127.105 19.328L129.817 26H125.185L122.809 19.64H121.825L120.697 26H116.593L119.569 9.152H126.457ZM127.513 14.624C127.545 14.368 127.561 14.2 127.561 14.12C127.561 13.608 127.393 13.216 127.057 12.944C126.737 12.656 126.257 12.512 125.617 12.512H123.073L122.329 16.736H124.873C125.625 16.736 126.217 16.552 126.649 16.184C127.097 15.816 127.385 15.296 127.513 14.624ZM138.753 12.392L138.153 15.896H143.649L143.097 18.992H137.601L136.929 22.76H143.145L142.569 26H132.249L135.225 9.152H145.545L144.969 12.392H138.753ZM151.93 26.168C150.106 26.168 148.618 25.776 147.466 24.992C146.33 24.192 145.762 23.064 145.762 21.608C145.762 21.464 145.778 21.248 145.81 20.96H150.082C150.034 21.568 150.178 22.048 150.514 22.4C150.85 22.752 151.362 22.928 152.05 22.928C152.674 22.928 153.162 22.792 153.514 22.52C153.882 22.248 154.066 21.864 154.066 21.368C154.066 20.856 153.834 20.44 153.37 20.12C152.922 19.8 152.218 19.44 151.258 19.04C150.33 18.656 149.57 18.296 148.978 17.96C148.402 17.608 147.898 17.136 147.466 16.544C147.034 15.952 146.818 15.208 146.818 14.312C146.802 13.208 147.074 12.248 147.634 11.432C148.194 10.616 148.97 9.992 149.962 9.56C150.954 9.128 152.09 8.912 153.37 8.912C154.522 8.912 155.546 9.096 156.442 9.464C157.338 9.816 158.034 10.336 158.53 11.024C159.026 11.696 159.274 12.496 159.274 13.424C159.274 13.664 159.266 13.84 159.25 13.952H154.882C154.898 13.888 154.906 13.792 154.906 13.664C154.906 13.216 154.746 12.856 154.426 12.584C154.122 12.296 153.698 12.152 153.154 12.152C152.578 12.152 152.106 12.296 151.738 12.584C151.386 12.856 151.21 13.232 151.21 13.712C151.21 14.192 151.434 14.6 151.882 14.936C152.33 15.256 153.026 15.632 153.97 16.064C154.914 16.496 155.682 16.896 156.274 17.264C156.882 17.632 157.402 18.128 157.834 18.752C158.266 19.36 158.482 20.112 158.482 21.008C158.482 22 158.218 22.888 157.69 23.672C157.162 24.456 156.402 25.072 155.41 25.52C154.418 25.952 153.258 26.168 151.93 26.168ZM166.859 26.168C165.035 26.168 163.547 25.776 162.395 24.992C161.259 24.192 160.691 23.064 160.691 21.608C160.691 21.464 160.707 21.248 160.739 20.96H165.011C164.963 21.568 165.107 22.048 165.443 22.4C165.779 22.752 166.291 22.928 166.979 22.928C167.603 22.928 168.091 22.792 168.443 22.52C168.811 22.248 168.995 21.864 168.995 21.368C168.995 20.856 168.763 20.44 168.299 20.12C167.851 19.8 167.147 19.44 166.187 19.04C165.259 18.656 164.499 18.296 163.907 17.96C163.331 17.608 162.827 17.136 162.395 16.544C161.963 15.952 161.747 15.208 161.747 14.312C161.731 13.208 162.003 12.248 162.563 11.432C163.123 10.616 163.899 9.992 164.891 9.56C165.883 9.128 167.019 8.912 168.299 8.912C169.451 8.912 170.475 9.096 171.371 9.464C172.267 9.816 172.963 10.336 173.459 11.024C173.955 11.696 174.203 12.496 174.203 13.424C174.203 13.664 174.195 13.84 174.179 13.952H169.811C169.827 13.888 169.835 13.792 169.835 13.664C169.835 13.216 169.675 12.856 169.355 12.584C169.051 12.296 168.627 12.152 168.083 12.152C167.507 12.152 167.035 12.296 166.667 12.584C166.315 12.856 166.139 13.232 166.139 13.712C166.139 14.192 166.363 14.6 166.811 14.936C167.259 15.256 167.955 15.632 168.899 16.064C169.843 16.496 170.611 16.896 171.203 17.264C171.811 17.632 172.331 18.128 172.763 18.752C173.195 19.36 173.411 20.112 173.411 21.008C173.411 22 173.147 22.888 172.619 23.672C172.091 24.456 171.331 25.072 170.339 25.52C169.347 25.952 168.187 26.168 166.859 26.168Z" fill="#FFEEEF"/>
</svg>
