<svg width="512" height="512" viewBox="0 0 512 512" fill="none" xmlns="http://www.w3.org/2000/svg">
<path d="M398.4 512H113.6C51.1 512 0 460.9 0 398.4V113.6C0 51.1 51.1 0 113.6 0H398.5C460.9 0 512 51.1 512 113.6V398.5C512 460.9 460.9 512 398.4 512Z" fill="url(#paint0_linear_376_73)"/>
<path d="M154.5 400.7C156.1 400.7 157.5 401 159 401.7C160.4 402.4 161.7 403.2 162.7 404.3C163.8 405.4 164.6 406.7 165.3 408.1C165.9 409.5 166.3 411 166.3 412.6C166.3 414.2 166 415.6 165.3 417.1C164.7 418.5 163.8 419.8 162.7 420.9C161.6 422 160.4 422.9 159 423.5C157.6 424.1 156.1 424.5 154.5 424.5C153.4 424.5 152.4 424.3 151.4 424C150.4 423.7 149.5 423.3 148.6 422.7V430.3H142.7V412.6C142.7 411 143 409.6 143.7 408.1C144.3 406.7 145.2 405.4 146.3 404.3C147.4 403.2 148.7 402.3 150.1 401.7C151.4 401 152.9 400.7 154.5 400.7ZM154.7 418.5C155.4 418.5 156.1 418.3 156.8 418C157.5 417.7 158.1 417.2 158.6 416.7C159.1 416.2 159.6 415.5 159.9 414.9C160.2 414.3 160.4 413.5 160.4 412.8V412.3C160.4 411.6 160.2 410.9 159.9 410.2C159.6 409.5 159.1 408.9 158.6 408.4C158.1 407.9 157.4 407.4 156.8 407.1C156.1 406.8 155.4 406.6 154.7 406.6H154.3C153.6 406.6 152.9 406.8 152.2 407.1C151.5 407.4 150.9 407.9 150.4 408.4C149.9 408.9 149.4 409.6 149.1 410.2C148.8 410.9 148.6 411.6 148.6 412.3V413C148.6 413.7 148.8 414.4 149.1 415C149.4 415.7 149.9 416.3 150.4 416.8C150.9 417.3 151.6 417.7 152.2 418.1C152.8 418.5 153.6 418.6 154.2 418.6H154.7V418.5Z" fill="white"/>
<path d="M192.5 424.4C190.9 424.4 189.4 424.1 188 423.4C186.6 422.8 185.3 421.9 184.2 420.8C183.1 419.7 182.2 418.4 181.6 417C181 415.6 180.6 414.1 180.6 412.5C180.6 410.9 180.9 409.4 181.6 408C182.2 406.6 183.1 405.3 184.2 404.2C185.3 403.1 186.6 402.2 188 401.6C189.4 401 190.9 400.6 192.5 400.6C194.1 400.6 195.5 400.9 197 401.6C198.4 402.2 199.7 403.1 200.7 404.2C201.8 405.3 202.6 406.6 203.3 408C203.9 409.4 204.3 410.9 204.3 412.5C204.3 414.1 204 415.6 203.3 417C202.7 418.4 201.8 419.7 200.7 420.8C199.6 421.9 198.4 422.8 197 423.4C195.5 424.1 194 424.4 192.5 424.4ZM192.6 406.6H192.2C191.5 406.6 190.8 406.8 190.1 407.1C189.4 407.4 188.8 407.9 188.3 408.4C187.8 408.9 187.3 409.6 187 410.2C186.7 410.9 186.5 411.6 186.5 412.3V412.8C186.5 413.5 186.7 414.2 187 414.9C187.3 415.6 187.8 416.2 188.3 416.7C188.8 417.2 189.5 417.7 190.1 418C190.8 418.3 191.5 418.5 192.2 418.5H192.6C193.3 418.5 194 418.3 194.7 418C195.4 417.7 196 417.2 196.5 416.7C197 416.2 197.5 415.5 197.8 414.9C198.1 414.2 198.3 413.5 198.3 412.8V412.3C198.3 411.6 198.1 410.9 197.8 410.2C197.5 409.5 197 408.9 196.5 408.4C196 407.9 195.3 407.4 194.7 407.1C194 406.7 193.3 406.6 192.6 406.6Z" fill="white"/>
<path d="M229.7 406.6V424.3H223.8V406.6H218V400.8H235.5V406.6H229.7Z" fill="white"/>
<path d="M262.1 406.6V424.3H256.2V406.6H250.4V400.8H267.9V406.6H262.1Z" fill="white"/>
<path d="M299.2 415.5H288.4C288.9 416.4 289.6 417.1 290.5 417.6C291.4 418.2 292.3 418.4 293.3 418.4H299.2V424.3H293.5C291.9 424.3 290.4 424 289 423.3C287.6 422.7 286.3 421.8 285.2 420.7C284.1 419.6 283.2 418.4 282.6 416.9C282 415.5 281.6 414 281.6 412.4C281.6 410.8 281.9 409.3 282.6 407.9C283.2 406.5 284.1 405.2 285.2 404.1C286.3 403 287.6 402.1 289 401.5C290.4 400.9 291.9 400.5 293.5 400.5H299.2V406.4H293.3C292.3 406.4 291.4 406.7 290.5 407.2C289.6 407.8 288.9 408.5 288.4 409.3H299.2V415.5Z" fill="white"/>
<path d="M325.4 406.7C324.7 406.7 324 406.9 323.3 407.2C322.6 407.5 322 408 321.5 408.5C321 409 320.5 409.7 320.2 410.3C319.9 411 319.7 411.7 319.7 412.4V412.8C319.7 413.5 319.9 414.2 320.2 414.9C320.5 415.6 321 416.2 321.5 416.7C322 417.2 322.7 417.7 323.3 418C324 418.3 324.7 418.5 325.4 418.5H331.4V424.4H325.7C324.1 424.4 322.6 424.1 321.2 423.4C319.8 422.8 318.5 421.9 317.4 420.8C316.3 419.7 315.4 418.5 314.8 417.1C314.2 415.7 313.8 414.2 313.8 412.6C313.8 411 314.1 409.5 314.8 408.1C315.4 406.7 316.3 405.4 317.4 404.3C318.5 403.2 319.8 402.3 321.2 401.7C322.6 401.1 324.1 400.7 325.7 400.7H331.4V406.6H325.4V406.7Z" fill="white"/>
<path d="M352 409.6H363.4V400.7H369.3V424.3H363.4V415.5H352V424.3H346.1V400.7H352V409.6Z" fill="white"/>
<path d="M223.83 253.79H229.972C234.039 253.79 237.978 253.802 241.839 253.814C249.324 253.836 256.517 253.858 263.785 253.791C299.989 253.329 324.098 214.686 308.382 182.256L308.38 182.25C303.603 172.369 297.233 165.229 289.559 160.493C281.87 155.747 272.533 153.207 261.523 153.065L253.097 153.065C242.615 152.912 240.565 152.938 230.038 152.963L223.83 152.963C213.343 152.989 208.978 153.014 198.396 152.861C193.647 152.85 188.305 151.28 184.331 148.441L184.318 148.432L184.305 148.422C177.479 143.493 177.476 135.359 180.006 129.555C181.622 125.733 184.223 122.976 187.559 121.298C190.734 119.7 194.162 119.286 197.216 119.286C203.58 119.286 209.973 119.253 216.385 119.219H216.385C232.51 119.136 248.751 119.051 264.943 119.493C297.225 120.371 322.185 135.724 337.155 164.228C352.556 193.386 350.746 223.122 332.426 250.548L332.418 250.56C316.419 274.393 293.159 286.58 264.681 287.566C261.02 287.693 259.577 288.566 258.972 289.175C258.389 289.761 257.554 291.138 257.508 294.671L257.507 301.662V304.05C257.146 325.828 239.779 343.338 218.235 343.46C196.56 343.582 179.12 326.148 178.996 304.194C178.842 284.978 178.861 265.753 178.88 246.517L178.88 246.515C178.887 240.104 178.893 233.692 178.893 227.278C178.893 222.213 180.094 217.233 183.791 213.605C187.464 210.001 192.463 208.853 197.523 208.853H205.692C213.634 208.853 258.609 208.853 267.772 208.955C270.65 208.941 272.747 206.687 272.661 204.039L272.659 203.985L272.658 203.93C272.607 200.571 269.843 197.769 266.359 197.696C264.09 197.696 259.297 197.69 253.217 197.682L253.097 197.682C233.89 197.658 214.173 197.605 208.251 197.682L196.056 197.695C180.487 197.867 167.897 209.966 167.735 224.073L167.735 224.083L167.735 227.278C167.326 255.12 167.021 269.608 167.734 297.314L167.734 307.279C168.639 344.394 211.945 367.424 243.623 347.761L243.634 347.755C258.153 338.784 266.415 326.136 267.973 309.137C268.164 306.921 268.679 304.109 270.667 301.662C272.663 299.206 275.396 298.024 277.974 297.314C279.074 297.005 280.167 296.702 281.254 296.4C291.293 293.612 300.731 290.991 308.977 286.401L308.983 286.397C347.249 265.149 365.075 223.716 355.414 180.619C346.313 140.193 307.411 108.722 266.063 108.435L250.219 108.435C232.438 108.282 230.442 108.301 212.607 108.32C206.658 108.327 200.708 108.333 194.759 108.333C185.783 108.333 178.76 112.112 173.39 119.356C166.639 128.502 165.686 138.026 170.684 148.197C175.783 158.473 184.106 163.641 195.664 163.814C206.866 163.967 210.291 163.942 221.558 163.916L229.368 163.916H229.368C240.609 163.89 251.907 163.865 263.214 164.019C285.269 164.265 302.547 181.806 302.547 203.326C302.547 225.088 284.606 242.408 262.562 242.53C255.414 242.582 248.246 242.556 241.117 242.53L219.795 242.53C216.477 242.571 214.957 243.447 214.238 244.174C213.519 244.902 212.673 246.421 212.673 249.696V304.972C212.673 308.035 215.074 310.563 218.212 310.704H218.915L219.016 310.707C221.766 310.797 223.978 308.61 223.933 305.891L223.933 305.841V302.479C223.933 300.237 223.907 292.966 223.882 282.492L223.877 280.454L223.876 280.436C223.853 270.712 223.83 261.567 223.83 259.932V253.79Z" fill="#CCCCCC"/>
<path d="M262.562 242.53C284.606 242.408 302.547 225.088 302.547 203.326C302.547 181.806 285.269 164.265 263.214 164.019C251.907 163.865 240.609 163.89 229.368 163.916L221.558 163.916C210.291 163.942 206.866 163.967 195.664 163.814C184.106 163.641 175.783 158.473 170.684 148.197C165.686 138.026 166.639 128.502 173.39 119.356C178.76 112.112 185.783 108.333 194.759 108.333C200.708 108.333 206.658 108.327 212.607 108.32C230.442 108.301 232.438 108.282 250.219 108.435L266.063 108.435C307.411 108.722 346.313 140.193 355.414 180.619C365.075 223.716 347.249 265.149 308.983 286.397L308.977 286.401C300.731 290.991 291.293 293.612 281.254 296.4C280.167 296.702 279.074 297.005 277.974 297.314C275.396 298.024 272.663 299.206 270.667 301.662C268.679 304.109 268.164 306.921 267.973 309.137C266.415 326.136 258.153 338.784 243.634 347.755L243.623 347.761C211.945 367.424 168.639 344.394 167.734 307.279L167.734 297.314C167.021 269.608 167.326 255.12 167.735 227.278L167.735 224.083L167.735 224.073C167.897 209.966 180.487 197.867 196.056 197.695L208.251 197.682C214.173 197.605 233.89 197.658 253.097 197.682C259.234 197.689 264.075 197.696 266.359 197.696C269.843 197.769 272.607 200.571 272.658 203.93L272.659 203.985L272.661 204.039C272.747 206.687 270.65 208.941 267.772 208.955C258.609 208.853 213.634 208.853 205.692 208.853H197.523C192.463 208.853 187.464 210.001 183.791 213.605C180.094 217.233 178.893 222.213 178.893 227.278C178.893 233.692 178.887 240.105 178.88 246.517C178.861 265.753 178.842 284.978 178.996 304.194C179.12 326.148 196.56 343.582 218.235 343.46C239.779 343.338 257.146 325.828 257.507 304.05V301.662L257.508 294.671C257.554 291.138 258.389 289.761 258.972 289.175C259.577 288.566 261.02 287.693 264.681 287.566C293.159 286.58 316.419 274.393 332.418 250.56L332.426 250.548C350.746 223.122 352.556 193.386 337.155 164.228C322.185 135.724 297.225 120.371 264.943 119.493C248.751 119.051 232.51 119.136 216.385 119.219C209.973 119.253 203.58 119.286 197.216 119.286C194.162 119.286 190.734 119.7 187.559 121.298C184.223 122.976 181.622 125.733 180.006 129.555C177.476 135.359 177.479 143.493 184.305 148.422L184.318 148.432L184.331 148.441C188.305 151.28 193.647 152.85 198.396 152.861C208.978 153.014 213.343 152.989 223.83 152.963L230.038 152.963C240.565 152.938 242.615 152.912 253.097 153.065L261.523 153.065C272.533 153.207 281.87 155.747 289.559 160.493C297.233 165.229 303.603 172.369 308.38 182.25L308.382 182.256C324.098 214.686 299.989 253.329 263.785 253.791C256.517 253.858 249.324 253.836 241.839 253.814C237.978 253.802 234.039 253.79 229.972 253.79H223.83V259.932C223.83 261.568 223.853 270.723 223.877 280.454L223.882 282.492C223.907 292.966 223.933 300.237 223.933 302.479V305.841L223.933 305.891C223.978 308.61 221.766 310.797 219.016 310.707L218.915 310.704H218.212C215.074 310.563 212.673 308.035 212.673 304.972V249.696C212.673 246.421 213.519 244.902 214.238 244.174C214.957 243.447 216.477 242.571 219.795 242.53L241.117 242.53C248.246 242.556 255.414 242.582 262.562 242.53ZM262.562 242.53L262.557 242.53M262.562 242.53L262.568 242.53" stroke="#CCCCCC" stroke-width="12"/>
<path d="M222.808 252.766C234.682 252.766 245.635 252.869 256.69 252.766C297.328 252.255 324.454 208.955 306.745 172.412C296.304 150.813 278.289 140.065 254.438 139.758C233.351 139.451 212.367 139.86 191.28 139.553C187.698 139.553 183.603 138.325 180.737 136.278C177.052 133.616 176.643 129.01 178.485 124.813C180.635 119.695 184.934 118.262 190.052 118.262C212.572 118.262 235.092 117.852 257.611 118.467C287.706 119.286 310.635 133.412 324.556 159.923C338.887 187.05 337.249 214.38 320.155 239.971C305.312 262.081 283.918 273.341 257.304 274.262C248.399 274.57 244.304 278.664 244.202 287.467C244.202 290.538 244.202 293.711 244.202 296.782C243.895 315.31 229.155 330.05 211.036 330.152C192.816 330.255 178.076 315.617 177.973 296.987C177.768 271.396 177.871 245.806 177.871 220.113C177.871 211.719 181.863 207.829 190.359 207.829C198.241 207.829 251.572 207.829 260.58 207.932C266.824 207.932 271.84 202.916 271.635 196.672C271.533 189.916 266.005 184.49 259.249 184.388C250.036 184.388 196.706 184.286 188.824 184.388C170.296 184.593 154.635 199.026 154.43 216.837C154.02 244.68 153.713 272.42 154.43 300.263C155.453 342.231 204.076 367.924 239.698 345.814C255.769 335.885 265.186 321.554 266.926 302.515C267.233 298.932 268.359 297.192 272.454 296.066C283.407 292.995 294.871 290.129 304.8 284.601C345.541 261.979 364.478 217.758 354.242 172.105C344.517 128.908 303.163 95.435 258.942 95.128C235.194 94.9232 211.343 95.0256 187.595 95.0256C176.54 95.0256 167.737 99.8366 161.288 108.537C153.201 119.49 151.973 131.467 158.013 143.75C164.154 156.136 174.595 162.585 188.414 162.79C210.934 163.097 233.454 162.687 255.973 162.994C274.706 163.199 289.241 178.042 289.241 196.16C289.241 214.38 274.194 229.121 255.359 229.223C241.131 229.325 226.8 229.121 212.572 229.223C203.871 229.325 199.367 233.932 199.367 242.53C199.367 247.751 199.367 290.129 199.367 297.806C199.367 304.255 204.485 309.475 210.934 309.68H211.651C217.895 309.885 223.013 304.869 222.91 298.625C222.91 294.121 222.808 256.247 222.808 252.766Z" fill="white"/>
<path d="M162.9 439.6C162.7 439.4 162.5 439.2 162.3 439C162.1 438.8 161.8 438.7 161.6 438.6C161.4 438.5 161.1 438.5 160.9 438.5H160.7C160.2 438.5 159.8 438.6 159.4 438.9L166.2 442.9C166 443.5 165.8 444 165.4 444.5C165 445 164.6 445.4 164.2 445.8C163.7 446.2 163.2 446.5 162.6 446.7C162 446.9 161.4 447 160.8 447C160.2 447 159.6 446.9 159.1 446.7C158.6 446.5 158.1 446.2 157.6 445.9C157.1 445.6 156.7 445.2 156.4 444.7C156 444.2 155.8 443.8 155.6 443.2L158.2 442.4C158.4 442.9 158.8 443.3 159.2 443.7C159.6 444.1 160.2 444.2 160.7 444.2H160.9C161.3 444.2 161.8 444.1 162.2 443.8L155.4 439.7C155.6 439.1 155.8 438.6 156.2 438.1C156.6 437.6 157 437.2 157.4 436.8C157.9 436.4 158.4 436.2 159 435.9C159.6 435.7 160.2 435.6 160.8 435.6C161.4 435.6 161.9 435.7 162.5 435.9C163 436.1 163.5 436.4 164 436.7C164.5 437 164.9 437.4 165.2 437.9C165.6 438.4 165.8 438.8 166 439.4L163.4 440.2C163.3 440 163.1 439.8 162.9 439.6Z" fill="white"/>
<path d="M167.7 435.7H170.5V436.5C170.9 436.2 171.4 436 171.9 435.9C172.4 435.7 172.9 435.7 173.4 435.7C174.2 435.7 175 435.9 175.7 436.2C176.4 436.5 177 437 177.6 437.7C178.1 437.1 178.8 436.6 179.5 436.2C180.2 435.8 181 435.7 181.8 435.7C182.5 435.7 183.3 435.9 183.9 436.2C184.5 436.5 185.2 436.9 185.7 437.4C186.2 437.9 186.6 438.5 186.9 439.2C187.2 439.9 187.4 440.6 187.4 441.3V446.9H184.6V441.1C184.6 440.8 184.5 440.4 184.4 440.1C184.2 439.8 184 439.5 183.8 439.2C183.5 438.9 183.3 438.7 182.9 438.6C182.6 438.4 182.2 438.4 181.9 438.4H181.7C181.4 438.4 181 438.5 180.7 438.6C180.4 438.8 180.1 439 179.8 439.2C179.5 439.4 179.3 439.7 179.2 440.1C179 440.4 179 440.8 179 441.1V446.9H176.2V441.1C176.2 440.8 176.1 440.4 176 440.1C175.8 439.8 175.6 439.5 175.4 439.2C175.2 438.9 174.9 438.7 174.5 438.6C174.2 438.4 173.8 438.4 173.5 438.4H173.3C173 438.4 172.7 438.5 172.3 438.6C172 438.8 171.7 439 171.4 439.2C171.1 439.4 170.9 439.7 170.8 440.1C170.6 440.4 170.6 440.7 170.6 441.1V446.9H167.8V435.7H167.7Z" fill="white"/>
<path d="M200.2 447H197.4V446.2C197 446.5 196.5 446.7 196 446.8C195.5 446.9 195 447 194.5 447C193.8 447 193 446.8 192.4 446.5C191.7 446.2 191.1 445.8 190.6 445.2C190.1 444.7 189.7 444.1 189.4 443.4C189.1 442.7 188.9 442 188.9 441.3C188.9 440.6 189.1 439.8 189.4 439.2C189.7 438.5 190.1 437.9 190.6 437.4C191.1 436.9 191.7 436.5 192.4 436.2C193.1 435.9 193.8 435.7 194.5 435.7C195 435.7 195.5 435.8 196 435.9C196.5 436.1 196.9 436.3 197.4 436.5V435.7H200.2V447ZM194.5 438.5C194.2 438.5 193.8 438.6 193.5 438.7C193.2 438.9 192.9 439.1 192.6 439.3C192.3 439.6 192.1 439.8 192 440.2C191.8 440.5 191.8 440.9 191.8 441.2V441.4C191.8 441.7 191.9 442.1 192 442.4C192.2 442.7 192.4 443 192.6 443.3C192.9 443.6 193.1 443.8 193.5 443.9C193.8 444.1 194.2 444.1 194.5 444.1H194.7C195 444.1 195.3 444 195.7 443.9C196 443.7 196.3 443.6 196.6 443.3C196.9 443.1 197.1 442.8 197.2 442.5C197.4 442.2 197.5 441.9 197.5 441.5V441.1C197.5 440.8 197.4 440.5 197.2 440.1C197 439.8 196.8 439.5 196.6 439.2C196.4 438.9 196.1 438.7 195.7 438.6C195.4 438.4 195.1 438.4 194.7 438.4H194.5V438.5Z" fill="white"/>
<path d="M207.4 438.5C207.1 438.5 206.7 438.6 206.4 438.7C206.1 438.8 205.8 439.1 205.5 439.3C205.2 439.6 205 439.8 204.9 440.2C204.7 440.5 204.7 440.9 204.7 441.2V446.9H201.9V441.3C201.9 440.5 202.1 439.8 202.4 439.1C202.7 438.4 203.1 437.8 203.6 437.3C204.1 436.8 204.7 436.4 205.4 436.1C206.1 435.8 206.8 435.6 207.6 435.6H210.3V438.4H207.4V438.5Z" fill="white"/>
<path d="M214.7 438.5V441.4C214.7 441.7 214.8 442.1 214.9 442.4C215.1 442.7 215.3 443 215.5 443.3C215.8 443.6 216 443.8 216.4 443.9C216.8 444 217.1 444.1 217.4 444.1H220.2V446.9H217.5C216.8 446.9 216 446.7 215.4 446.4C214.7 446.1 214.1 445.7 213.6 445.2C213.1 444.7 212.7 444.1 212.4 443.4C212.1 442.7 211.9 442 211.9 441.2V432.8H214.7V435.6H220.3V438.4H214.7V438.5Z" fill="white"/>
<path d="M231.3 449.8H228.5V433H231.3V449.8Z" fill="white"/>
<path d="M239.6 435.7H245.1C245.8 435.7 246.6 435.9 247.2 436.2C247.8 436.5 248.5 436.9 249 437.4C249.5 437.9 249.9 438.5 250.2 439.2C250.5 439.9 250.7 440.6 250.7 441.3C250.7 442 250.5 442.8 250.2 443.4C249.9 444.1 249.5 444.7 249 445.2C248.5 445.7 247.9 446.1 247.2 446.4C246.5 446.7 245.8 446.9 245.1 446.9H239.6V435.7ZM242.4 438.5V444.2H245.2C245.5 444.2 245.9 444.1 246.2 444C246.5 443.8 246.8 443.6 247.1 443.4C247.4 443.1 247.6 442.9 247.7 442.5C247.9 442.2 247.9 441.8 247.9 441.5V441.3C247.9 441 247.8 440.6 247.7 440.3C247.6 440 247.3 439.7 247.1 439.4C246.9 439.1 246.6 438.9 246.2 438.8C245.9 438.6 245.5 438.6 245.2 438.6H242.4V438.5Z" fill="white"/>
<path d="M252.3 435.7H255.1V447H252.3V435.7Z" fill="white"/>
<path d="M262.4 447.7C262.8 447.7 263.2 447.6 263.6 447.3C264 447.1 264.3 446.8 264.6 446.4C263.9 446.7 263.1 446.9 262.3 446.9C261.6 446.9 260.8 446.7 260.2 446.4C259.5 446.1 258.9 445.7 258.4 445.2C257.9 444.7 257.5 444.1 257.2 443.4C256.9 442.7 256.7 442 256.7 441.3C256.7 440.6 256.8 439.8 257.2 439.2C257.5 438.5 257.9 437.9 258.4 437.4C258.9 436.9 259.5 436.5 260.2 436.1C260.9 435.8 261.6 435.6 262.3 435.6C262.8 435.6 263.3 435.7 263.8 435.8C264.3 436 264.7 436.2 265.2 436.4V435.6H268V444.7C268 445.5 267.8 446.2 267.5 446.9C267.2 447.6 266.8 448.2 266.3 448.7C265.8 449.2 265.2 449.6 264.5 450C263.8 450.3 263.1 450.5 262.3 450.5H259.6V447.7H262.4ZM262.4 444.2C262.7 444.2 263 444.1 263.4 444C263.7 443.9 264 443.6 264.3 443.4C264.6 443.2 264.8 442.9 264.9 442.6C265.1 442.3 265.2 442 265.2 441.6V441.2C265.2 440.9 265.1 440.6 264.9 440.2C264.7 439.9 264.5 439.6 264.3 439.4C264.1 439.2 263.8 439 263.4 438.8C263 438.6 262.8 438.6 262.4 438.6H262.2C261.9 438.6 261.5 438.7 261.2 438.8C260.9 439 260.6 439.2 260.3 439.4C260 439.7 259.8 439.9 259.7 440.3C259.5 440.6 259.5 441 259.5 441.3V441.5C259.5 441.8 259.6 442.2 259.7 442.5C259.9 442.8 260.1 443.1 260.3 443.4C260.6 443.7 260.8 443.9 261.2 444C261.5 444.2 261.9 444.2 262.2 444.2H262.4Z" fill="white"/>
<path d="M269.5 435.7H272.3V447H269.5V435.7Z" fill="white"/>
<path d="M276.8 438.5V441.4C276.8 441.7 276.9 442.1 277 442.4C277.2 442.7 277.4 443 277.6 443.3C277.9 443.6 278.1 443.8 278.5 443.9C278.9 444 279.2 444.1 279.5 444.1H282.3V446.9H279.6C278.9 446.9 278.1 446.7 277.5 446.4C276.8 446.1 276.2 445.7 275.7 445.2C275.2 444.7 274.8 444.1 274.5 443.4C274.2 442.7 274 442 274 441.2V432.8H276.8V435.6H282.4V438.4H276.8V438.5Z" fill="white"/>
<path d="M294.9 447H292.1V446.2C291.7 446.5 291.2 446.7 290.7 446.8C290.2 446.9 289.7 447 289.2 447C288.5 447 287.7 446.8 287.1 446.5C286.4 446.2 285.8 445.8 285.3 445.2C284.8 444.7 284.4 444.1 284.1 443.4C283.8 442.7 283.6 442 283.6 441.3C283.6 440.6 283.8 439.8 284.1 439.2C284.4 438.5 284.8 437.9 285.3 437.4C285.8 436.9 286.4 436.5 287.1 436.2C287.8 435.9 288.5 435.7 289.2 435.7C289.7 435.7 290.2 435.8 290.7 435.9C291.2 436.1 291.6 436.3 292.1 436.5V435.7H294.9V447ZM289.2 438.5C288.9 438.5 288.5 438.6 288.2 438.7C287.9 438.9 287.6 439.1 287.3 439.3C287 439.6 286.8 439.8 286.7 440.2C286.5 440.5 286.5 440.9 286.5 441.2V441.4C286.5 441.7 286.6 442.1 286.7 442.4C286.9 442.7 287.1 443 287.3 443.3C287.6 443.6 287.8 443.8 288.2 443.9C288.5 444.1 288.9 444.1 289.2 444.1H289.4C289.7 444.1 290 444 290.4 443.9C290.7 443.7 291 443.6 291.3 443.3C291.6 443.1 291.8 442.8 291.9 442.5C292.1 442.2 292.2 441.9 292.2 441.5V441.1C292.2 440.8 292.1 440.5 291.9 440.1C291.7 439.8 291.5 439.5 291.3 439.2C291.1 438.9 290.8 438.7 290.4 438.6C290.1 438.4 289.8 438.4 289.4 438.4H289.2V438.5Z" fill="white"/>
<path d="M304.9 444.2V447H302.2C301.4 447 300.7 446.8 300 446.5C299.3 446.2 298.7 445.8 298.2 445.3C297.7 444.8 297.3 444.2 297 443.5C296.7 442.8 296.5 442.1 296.5 441.3V435.7H299.3V441.4C299.3 441.7 299.4 442.1 299.5 442.4C299.7 442.7 299.9 443 300.1 443.3C300.4 443.6 300.6 443.8 301 443.9C301.4 444 301.7 444.1 302 444.1H304.9V444.2Z" fill="white"/>
<path d="M316 449.8H313.2V433H316V449.8Z" fill="white"/>
<path d="M331.5 444.2V447H329.9C329.1 447 328.4 446.8 327.7 446.5C327 446.2 326.4 445.8 325.9 445.3C325.4 444.8 325 444.2 324.7 443.5C324.4 442.8 324.2 442.1 324.2 441.3V435.7H327V441.4C327 441.7 327.1 442.1 327.2 442.4C327.4 442.7 327.6 443 327.8 443.3C328.1 443.6 328.3 443.8 328.7 443.9C329.1 444 329.4 444.1 329.7 444.1H331.5V444.2Z" fill="white"/>
<path d="M333.1 435.7H335.9V447H333.1V435.7Z" fill="white"/>
<path d="M337.6 435.7H340.4V444.1H340.5C340.8 444.1 341.2 444 341.5 443.9C341.8 443.7 342.1 443.5 342.4 443.3C342.7 443 342.9 442.7 343 442.4C343.2 442.1 343.2 441.7 343.2 441.4V435.7H346V441.4C346 442.1 345.8 442.8 345.5 443.5C345.2 444.2 344.8 444.8 344.3 445.3C343.8 445.8 343.2 446.2 342.5 446.5C341.8 446.8 341.1 447 340.4 447H337.6V435.7Z" fill="white"/>
<path d="M351.8 443.7C352.2 444 352.7 444.1 353.1 444.1H353.3C353.9 444.1 354.4 443.9 354.9 443.5L357.8 444.4C357.5 444.8 357.3 445.1 356.9 445.5C356.5 445.9 356.2 446.1 355.8 446.3C355.4 446.5 355 446.7 354.5 446.8C354 446.9 353.6 447 353.1 447C352.3 447 351.6 446.8 350.9 446.5C350.2 446.2 349.6 445.8 349.1 445.2C348.6 444.7 348.2 444.1 347.9 443.4C347.6 442.7 347.4 442 347.4 441.3C347.4 440.5 347.6 439.8 347.9 439.1C348.2 438.4 348.6 437.8 349.1 437.3C349.6 436.8 350.2 436.4 350.9 436.1C351.6 435.8 352.3 435.6 353.1 435.6C353.8 435.6 354.6 435.8 355.2 436.1C355.9 436.4 356.5 436.8 357 437.3C357.5 437.8 357.9 438.4 358.2 439.1C358.5 439.8 358.7 440.5 358.7 441.2C358.7 441.4 358.7 441.6 358.6 441.9C358.6 442.1 358.5 442.4 358.5 442.7H350.7C351.1 443.1 351.4 443.5 351.8 443.7ZM353.1 438.5C352.6 438.5 352.2 438.6 351.8 438.9C351.4 439.2 351 439.5 350.8 439.9H355.6C355.3 439.5 355 439.2 354.6 438.9C354.2 438.6 353.7 438.5 353.3 438.5H353.1Z" fill="white"/>
<defs>
<linearGradient id="paint0_linear_376_73" x1="256" y1="512" x2="256" y2="0" gradientUnits="userSpaceOnUse">
<stop stop-color="#01B3B5"/>
<stop offset="0.9955" stop-color="#30B673"/>
</linearGradient>
</defs>
</svg>
