<svg width="40" height="48" viewBox="0 0 40 48" fill="none" xmlns="http://www.w3.org/2000/svg">
<path d="M0 48V17.3515C0 15.1525 0.563747 12.9878 1.65601 11.0637C4.1224 6.73443 9.61893 0 19.9073 0C28.892 0 33.9305 4.84467 36.5378 8.79599C38.37 11.5791 39.3213 14.8089 39.3918 18.1417C39.4975 25.1167 35.7275 38.1389 16.8772 38.6886C16.2077 38.723 15.644 38.1732 15.644 37.5204V28.5526C15.644 27.5218 16.243 26.5941 17.1943 26.1818C17.6876 25.9757 18.3218 25.8382 19.1674 25.8382C19.1674 25.8382 26.6018 26.01 26.5313 19.5161C26.4961 16.6643 25.0163 15.0494 23.5012 14.1904C21.6338 13.0565 19.3788 12.8848 17.4057 13.6063C15.3973 14.3278 13.1071 16.0802 13.1071 20.2377C13.1071 27.6593 13.1071 39.0666 13.1071 39.0666C13.1071 39.0666 12.1558 48 0 48Z" fill="#FF575C"/>
</svg>
